HIERARCHY
ROOT joint_Root
{
	OFFSET 0.0 0.0 0.0
	CHANNELS 6 Xposition Yposition Zposition Zrotation Xrotation Yrotation 
	JOINT Hips
	{
		OFFSET -0.726466 93.3139 -2.00062
		CHANNELS 6 Xposition Yposition Zposition Zrotation Xrotation Yrotation 
		JOINT Spine
		{
			OFFSET 15.7357 0.0 0.0
			CHANNELS 6 Xposition Yposition Zposition Zrotation Xrotation Yrotation 
			JOINT Chest
			{
				OFFSET 8.98455 -0.406207 0.0
				CHANNELS 6 Xposition Yposition Zposition Zrotation Xrotation Yrotation 
				JOINT Neck
				{
					OFFSET 16.3773 0.0 0.0
					CHANNELS 6 Xposition Yposition Zposition Zrotation Xrotation Yrotation 
					JOINT Head
					{
						OFFSET 6.45672 0.0 0.0
						CHANNELS 6 Xposition Yposition Zposition Zrotation Xrotation Yrotation 
						End Site
						{
							OFFSET 0.0 0.0 0.0
						}
					}
				}
				JOINT Shoulder_L
				{
					OFFSET 12.9942 -0.242716 4.98039
					CHANNELS 6 Xposition Yposition Zposition Zrotation Xrotation Yrotation 
					JOINT UpperArm_L
					{
						OFFSET 5.34809 0.0 0.0
						CHANNELS 6 Xposition Yposition Zposition Zrotation Xrotation Yrotation 
						JOINT LowerArm_L
						{
							OFFSET 24.3286 1.87007e-05 0.0
							CHANNELS 6 Xposition Yposition Zposition Zrotation Xrotation Yrotation 
							JOINT Hand_L
							{
								OFFSET 22.2916 0.0 0.0
								CHANNELS 6 Xposition Yposition Zposition Zrotation Xrotation Yrotation 
								End Site
								{
									OFFSET 0.0 0.0 0.0
								}
							}
						}
					}
				}
				JOINT Shoulder_R
				{
					OFFSET 12.9945 -0.242716 -4.98039
					CHANNELS 6 Xposition Yposition Zposition Zrotation Xrotation Yrotation 
					JOINT UpperArm_R
					{
						OFFSET -5.34813 0.0 0.0
						CHANNELS 6 Xposition Yposition Zposition Zrotation Xrotation Yrotation 
						JOINT LowerArm_R
						{
							OFFSET -24.3289 0.000322201 0.0
							CHANNELS 6 Xposition Yposition Zposition Zrotation Xrotation Yrotation 
							JOINT Hand_R
							{
								OFFSET -22.2915 -0.000108084 0.0
								CHANNELS 6 Xposition Yposition Zposition Zrotation Xrotation Yrotation 
								End Site
								{
									OFFSET 0.0 0.0 0.0
								}
							}
						}
					}
				}
			}
		}
		JOINT UpperLeg_L
		{
			OFFSET -2.19248 -6.46944 0.0
			CHANNELS 6 Xposition Yposition Zposition Zrotation Xrotation Yrotation 
			JOINT LowerLeg_L
			{
				OFFSET 39.0811 0.0 -1.23785e-05
				CHANNELS 6 Xposition Yposition Zposition Zrotation Xrotation Yrotation 
				JOINT Foot_L
				{
					OFFSET 40.9854 0.0 -1.26872e-05
					CHANNELS 6 Xposition Yposition Zposition Zrotation Xrotation Yrotation 
					JOINT Toes_L
					{
						OFFSET 11.7543 0.0 0.0
						CHANNELS 6 Xposition Yposition Zposition Zrotation Xrotation Yrotation 
						End Site
						{
							OFFSET 0.0 0.0 0.0
						}
					}
				}
			}
		}
		JOINT UpperLeg_R
		{
			OFFSET -2.19251 6.46944 0.0
			CHANNELS 6 Xposition Yposition Zposition Zrotation Xrotation Yrotation 
			JOINT LowerLeg_R
			{
				OFFSET -39.0811 -0.00228153 -0.0401928
				CHANNELS 6 Xposition Yposition Zposition Zrotation Xrotation Yrotation 
				JOINT Foot_R
				{
					OFFSET -40.9854 0.0 0.0
					CHANNELS 6 Xposition Yposition Zposition Zrotation Xrotation Yrotation 
					JOINT Toes_R
					{
						OFFSET -11.7543 0.0 0.0
						CHANNELS 6 Xposition Yposition Zposition Zrotation Xrotation Yrotation 
						End Site
						{
							OFFSET 0.0 0.0 0.0
						}
					}
				}
			}
		}
	}
}
MOTION
Frames:	6
Frame Time:	0.0333333
0.000000 0.000000 0.000000 0.000000 0.000000 -0.000000 -1.138880 91.998200 -0.869501 87.371800 -2.623370 4.484640 15.735700 0.000005 -0.000001 91.945000 86.523600 -92.414800 8.984550 -0.406207 -0.000000 -0.815932 0.271107 -0.937113 16.377300 -0.000001 -0.000001 0.239185 -1.274320 1.921690 6.456720 -0.000001 -0.000000 1.051140 -0.644416 -6.630670 12.994200 -0.242716 4.980390 -88.954500 -3.139130 -71.568400 5.348090 -0.000007 -0.000001 32.360300 76.553000 -77.087000 24.328600 0.000019 0.000005 12.795000 -0.351073 -91.545600 22.291600 -0.000001 0.000005 42.990600 5.637710 -28.303300 12.994500 -0.242716 -4.980390 91.221400 -2.921570 -67.300400 -5.348130 -0.000001 -0.000004 -58.088400 -50.222600 -104.594000 -24.328900 0.000322 -0.000009 6.106720 4.153840 -55.906100 -22.291500 -0.000108 -0.000004 20.393200 5.351100 -1.410370 -2.192480 -6.469440 -0.000000 -167.998000 -20.361200 -1.345140 39.081100 -0.000007 -0.000012 -0.180544 0.427802 22.881300 40.985400 -0.000006 -0.000013 -6.263200 0.454142 -64.274500 11.754300 -0.000000 0.000003 -0.000098 -0.001010 -16.616300 -2.192510 6.469440 -0.000001 174.338000 22.879900 -179.422000 -39.081100 -0.002282 -0.040193 0.000874 0.006682 20.111800 -40.985400 0.000008 0.000006 -1.731890 3.384760 -63.829400 -11.754300 -0.000006 -0.000006 -0.004289 -0.054415 -18.786700
0.000000 0.000000 0.000000 0.000000 0.000000 -0.000000 -1.127410 91.991300 -0.859628 87.374000 -2.621350 4.537590 15.735700 0.000005 -0.000001 91.876000 86.514200 -92.333700 8.984550 -0.406207 -0.000000 -0.797054 0.262362 -0.913053 16.377300 -0.000001 -0.000001 0.375056 -1.254100 1.952930 6.456720 -0.000001 -0.000000 1.127950 -0.637947 -6.593170 12.994200 -0.242716 4.980390 -88.954000 -3.136450 -71.545800 5.348090 -0.000007 -0.000001 32.179300 76.561400 -76.935900 24.328600 0.000019 0.000005 12.871500 -0.345576 -91.512000 22.291600 -0.000001 0.000005 43.053600 5.637950 -28.284100 12.994500 -0.242716 -4.980390 91.225200 -2.922120 -67.241100 -5.348130 -0.000001 -0.000004 -58.041000 -50.180900 -104.409000 -24.328900 0.000322 -0.000009 5.986390 4.038850 -56.118000 -22.291500 -0.000108 -0.000004 20.478000 5.352690 -1.458350 -2.192480 -6.469440 -0.000000 -167.984000 -20.372600 -1.294950 39.081100 -0.000007 -0.000012 -0.181068 0.428091 22.926900 40.985400 -0.000006 -0.000013 -6.251500 0.480905 -64.313700 11.754300 -0.000000 0.000003 -0.000083 -0.000874 -16.611200 -2.192510 6.469440 -0.000001 174.300000 22.819000 -179.364000 -39.081100 -0.002282 -0.040193 -0.001368 0.012797 20.124400 -40.985400 0.000008 0.000006 -1.838280 3.333880 -63.832300 -11.754300 -0.000006 -0.000006 -0.004111 -0.052590 -18.712400
0.000000 0.000000 0.000000 0.000000 0.000000 -0.000000 -1.114410 91.978200 -0.848254 87.390200 -2.629060 4.616700 15.735700 0.000005 -0.000001 91.782500 86.494600 -92.224300 8.984550 -0.406207 -0.000000 -0.757466 0.250890 -0.881557 16.377300 -0.000001 -0.000001 0.509250 -1.220920 2.005520 6.456720 -0.000001 -0.000000 1.258170 -0.576052 -6.659140 12.994200 -0.242716 4.980390 -88.961600 -3.106580 -71.507100 5.348090 -0.000007 -0.000001 32.134000 76.546900 -76.904700 24.328600 0.000019 0.000005 12.898100 -0.338404 -91.477500 22.291600 -0.000001 0.000005 43.131200 5.638700 -28.222600 12.994500 -0.242716 -4.980390 91.230900 -2.927070 -67.180200 -5.348130 -0.000001 -0.000004 -58.106400 -50.096700 -104.359000 -24.328900 0.000322 -0.000009 6.100270 4.089130 -56.293600 -22.291500 -0.000108 -0.000004 20.301100 5.352360 -1.448330 -2.192480 -6.469440 -0.000000 -167.954000 -20.411900 -1.231860 39.081100 -0.000007 -0.000012 -0.183075 0.431401 22.995400 40.985400 -0.000006 -0.000013 -6.240410 0.559155 -64.351100 11.754300 -0.000000 0.000003 -0.000099 -0.001022 -16.616800 -2.192510 6.469440 -0.000001 174.204000 22.844200 -179.277000 -39.081100 -0.002282 -0.040193 -0.005573 0.024211 20.171000 -40.985400 0.000008 0.000006 -1.969210 3.441330 -63.855500 -11.754300 -0.000006 -0.000006 -0.004281 -0.054335 -18.783500
0.000000 0.000000 0.000000 0.000000 0.000000 -0.000000 -1.113230 91.978800 -0.839253 87.408200 -2.654160 4.692310 15.735700 0.000005 -0.000001 91.847700 86.480300 -92.274500 8.984550 -0.406207 -0.000000 -0.729170 0.258562 -0.851478 16.377300 -0.000001 -0.000001 0.627254 -1.175040 2.018530 6.456720 -0.000001 -0.000000 1.446600 -0.548270 -6.726030 12.994200 -0.242716 4.980390 -88.967300 -3.086260 -71.488000 5.348090 -0.000007 -0.000001 32.004700 76.521600 -76.770000 24.328600 0.000019 0.000005 12.930700 -0.338851 -91.475600 22.291600 -0.000001 0.000005 43.053700 5.638750 -28.218500 12.994500 -0.242716 -4.980390 91.226300 -2.907860 -67.121200 -5.348130 -0.000001 -0.000004 -57.981900 -50.038300 -104.253000 -24.328900 0.000322 -0.000009 6.187920 4.139480 -56.350600 -22.291500 -0.000108 -0.000004 20.428300 5.347080 -1.289900 -2.192480 -6.469440 -0.000000 -167.953000 -20.400600 -1.133570 39.081100 -0.000007 -0.000012 -0.181823 0.428787 22.979200 40.985400 -0.000006 -0.000013 -6.245760 0.505997 -64.355300 11.754300 -0.000000 0.000003 -0.000084 -0.000883 -16.611600 -2.192510 6.469440 -0.000001 174.138000 22.880800 -179.184000 -39.081100 -0.002282 -0.040193 -0.006216 0.025964 20.168300 -40.985400 0.000008 0.000006 -1.982340 3.499300 -63.855100 -11.754300 -0.000006 -0.000006 -0.004204 -0.053546 -18.751300
0.000000 0.000000 0.000000 0.000000 0.000000 -0.000000 -1.112480 91.966900 -0.839226 87.391100 -2.679950 4.761250 15.735700 0.000005 -0.000001 91.780000 86.467400 -92.183700 8.984550 -0.406207 -0.000000 -0.703311 0.249238 -0.805477 16.377300 -0.000001 -0.000001 0.758689 -1.149440 2.026990 6.456720 -0.000001 -0.000000 1.621290 -0.540184 -6.760080 12.994200 -0.242716 4.980390 -88.975700 -3.051950 -71.437100 5.348090 -0.000007 -0.000001 32.048500 76.474200 -76.797900 24.328600 0.000019 0.000005 12.768600 -0.331979 -91.464700 22.291600 -0.000001 0.000005 42.869400 5.636710 -28.384300 12.994500 -0.242716 -4.980390 91.240200 -2.935710 -67.085300 -5.348130 -0.000001 -0.000004 -57.858100 -50.032900 -104.093000 -24.328900 0.000322 -0.000009 6.211760 4.148010 -56.398700 -22.291500 -0.000108 -0.000004 20.389200 5.348890 -1.344000 -2.192480 -6.469440 -0.000000 -167.899000 -20.398200 -1.098920 39.081100 -0.000007 -0.000012 -0.185070 0.434594 23.066800 40.985400 -0.000006 -0.000013 -6.252280 0.509684 -64.398500 11.754300 -0.000000 0.000003 -0.000093 -0.000968 -16.614800 -2.192510 6.469440 -0.000001 174.120000 22.838100 -179.140000 -39.081100 -0.002282 -0.040193 -0.008923 0.033229 20.227500 -40.985400 0.000008 0.000006 -2.029480 3.506030 -63.880400 -11.754300 -0.000006 -0.000006 -0.004224 -0.053746 -18.759500
0.000000 0.000000 0.000000 0.000000 0.000000 -0.000000 -1.112340 91.965900 -0.858431 87.409000 -2.675150 4.819940 15.735700 0.000005 -0.000001 91.813700 86.458600 -92.220700 8.984550 -0.406207 -0.000000 -0.685764 0.254120 -0.812090 16.377300 -0.000001 -0.000001 0.911725 -1.195270 2.076560 6.456720 -0.000001 -0.000000 1.740840 -0.606022 -6.729160 12.994200 -0.242716 4.980390 -88.972800 -3.060170 -71.434700 5.348090 -0.000007 -0.000001 32.122100 76.450500 -76.851500 24.328600 0.000019 0.000005 12.853800 -0.339835 -91.489000 22.291600 -0.000001 0.000005 42.944500 5.637780 -28.298400 12.994500 -0.242716 -4.980390 91.230900 -2.905070 -67.025300 -5.348130 -0.000001 -0.000004 -57.563800 -50.109300 -103.825000 -24.328900 0.000322 -0.000009 6.147490 4.105640 -56.392600 -22.291500 -0.000108 -0.000004 20.398000 5.351390 -1.419210 -2.192480 -6.469440 -0.000000 -167.902000 -20.384100 -1.049030 39.081100 -0.000007 -0.000012 -0.183917 0.431850 23.068500 40.985400 -0.000006 -0.000013 -6.242670 0.527253 -64.392600 11.754300 -0.000000 0.000003 -0.000090 -0.000944 -16.613800 -2.192510 6.469440 -0.000001 174.081000 22.786400 -179.094000 -39.081100 -0.002282 -0.040193 -0.010594 0.037748 20.234600 -40.985400 0.000008 0.000006 -2.108490 3.478300 -63.869500 -11.754300 -0.000006 -0.000006 -0.004048 -0.051941 -18.685900
